<?xml version="1.0" encoding="utf-8" standalone="no"?>
<!DOCTYPE svg PUBLIC "-//W3C//DTD SVG 1.1//EN"
  "http://www.w3.org/Graphics/SVG/1.1/DTD/svg11.dtd">
<svg xmlns:xlink="http://www.w3.org/1999/xlink" width="460.8pt" height="345.6pt" viewBox="0 0 460.8 345.6" xmlns="http://www.w3.org/2000/svg" version="1.1">
 <metadata>
  <rdf:RDF xmlns:dc="http://purl.org/dc/elements/1.1/" xmlns:cc="http://creativecommons.org/ns#" xmlns:rdf="http://www.w3.org/1999/02/22-rdf-syntax-ns#">
   <cc:Work>
    <dc:type rdf:resource="http://purl.org/dc/dcmitype/StillImage"/>
    <dc:date>2024-02-21T05:49:50.551270</dc:date>
    <dc:format>image/svg+xml</dc:format>
    <dc:creator>
     <cc:Agent>
      <dc:title>Matplotlib v3.8.3, https://matplotlib.org/</dc:title>
     </cc:Agent>
    </dc:creator>
   </cc:Work>
  </rdf:RDF>
 </metadata>
 <defs>
  <style type="text/css">*{stroke-linejoin: round; stroke-linecap: butt}</style>
 </defs>
 <g id="figure_1">
  <g id="patch_1">
   <path d="M 0 345.6 
L 460.8 345.6 
L 460.8 0 
L 0 0 
z
" style="fill: #ffffff"/>
  </g>
  <g id="axes_1">
   <g id="patch_2">
    <path d="M 57.6 307.584 
L 414.72 307.584 
L 414.72 41.472 
L 57.6 41.472 
z
" style="fill: #ffffff"/>
   </g>
   <g id="matplotlib.axis_1">
    <g id="xtick_1">
     <g id="line2d_1">
      <path d="M 73.832727 307.584 
L 73.832727 41.472 
" clip-path="url(#p0bdea1a430)" style="fill: none; stroke: #b0b0b0; stroke-width: 0.8; stroke-linecap: square"/>
     </g>
     <g id="line2d_2">
      <defs>
       <path id="mb3940e794d" d="M 0 0 
L 0 3.5 
" style="stroke: #000000; stroke-width: 0.8"/>
      </defs>
      <g>
       <use xlink:href="#mb3940e794d" x="73.832727" y="307.584" style="stroke: #000000; stroke-width: 0.8"/>
      </g>
     </g>
     <g id="text_1">
      <!-- 0 -->
      <g transform="translate(70.651477 322.182437) scale(0.1 -0.1)">
       <defs>
        <path id="DejaVuSans-30" d="M 2034 4250 
Q 1547 4250 1301 3770 
Q 1056 3291 1056 2328 
Q 1056 1369 1301 889 
Q 1547 409 2034 409 
Q 2525 409 2770 889 
Q 3016 1369 3016 2328 
Q 3016 3291 2770 3770 
Q 2525 4250 2034 4250 
z
M 2034 4750 
Q 2819 4750 3233 4129 
Q 3647 3509 3647 2328 
Q 3647 1150 3233 529 
Q 2819 -91 2034 -91 
Q 1250 -91 836 529 
Q 422 1150 422 2328 
Q 422 3509 836 4129 
Q 1250 4750 2034 4750 
z
" transform="scale(0.015625)"/>
       </defs>
       <use xlink:href="#DejaVuSans-30"/>
      </g>
     </g>
    </g>
    <g id="xtick_2">
     <g id="line2d_3">
      <path d="M 236.16 307.584 
L 236.16 41.472 
" clip-path="url(#p0bdea1a430)" style="fill: none; stroke: #b0b0b0; stroke-width: 0.8; stroke-linecap: square"/>
     </g>
     <g id="line2d_4">
      <g>
       <use xlink:href="#mb3940e794d" x="236.16" y="307.584" style="stroke: #000000; stroke-width: 0.8"/>
      </g>
     </g>
     <g id="text_2">
      <!-- π/2 -->
      <g transform="translate(228.284219 322.182437) scale(0.1 -0.1)">
       <defs>
        <path id="DejaVuSans-3c0" d="M 231 3500 
L 3584 3500 
L 3584 2925 
L 3144 2925 
L 3144 775 
Q 3144 550 3220 451 
Q 3297 353 3469 353 
Q 3516 353 3584 361 
Q 3653 369 3675 372 
L 3675 -44 
Q 3566 -84 3450 -103 
Q 3334 -122 3219 -122 
Q 2844 -122 2700 83 
Q 2556 288 2556 838 
L 2556 2925 
L 1266 2925 
L 1266 0 
L 678 0 
L 678 2925 
L 231 2925 
L 231 3500 
z
" transform="scale(0.015625)"/>
        <path id="DejaVuSans-2f" d="M 1625 4666 
L 2156 4666 
L 531 -594 
L 0 -594 
L 1625 4666 
z
" transform="scale(0.015625)"/>
        <path id="DejaVuSans-32" d="M 1228 531 
L 3431 531 
L 3431 0 
L 469 0 
L 469 531 
Q 828 903 1448 1529 
Q 2069 2156 2228 2338 
Q 2531 2678 2651 2914 
Q 2772 3150 2772 3378 
Q 2772 3750 2511 3984 
Q 2250 4219 1831 4219 
Q 1534 4219 1204 4116 
Q 875 4013 500 3803 
L 500 4441 
Q 881 4594 1212 4672 
Q 1544 4750 1819 4750 
Q 2544 4750 2975 4387 
Q 3406 4025 3406 3419 
Q 3406 3131 3298 2873 
Q 3191 2616 2906 2266 
Q 2828 2175 2409 1742 
Q 1991 1309 1228 531 
z
" transform="scale(0.015625)"/>
       </defs>
       <use xlink:href="#DejaVuSans-3c0"/>
       <use xlink:href="#DejaVuSans-2f" x="60.205078"/>
       <use xlink:href="#DejaVuSans-32" x="93.896484"/>
      </g>
     </g>
    </g>
    <g id="xtick_3">
     <g id="line2d_5">
      <path d="M 398.487273 307.584 
L 398.487273 41.472 
" clip-path="url(#p0bdea1a430)" style="fill: none; stroke: #b0b0b0; stroke-width: 0.8; stroke-linecap: square"/>
     </g>
     <g id="line2d_6">
      <g>
       <use xlink:href="#mb3940e794d" x="398.487273" y="307.584" style="stroke: #000000; stroke-width: 0.8"/>
      </g>
     </g>
     <g id="text_3">
      <!-- π -->
      <g transform="translate(395.477116 322.182437) scale(0.1 -0.1)">
       <use xlink:href="#DejaVuSans-3c0"/>
      </g>
     </g>
    </g>
    <g id="text_4">
     <!-- $x$ -->
     <g transform="translate(233.16 335.860562) scale(0.1 -0.1)">
      <defs>
       <path id="DejaVuSans-Oblique-78" d="M 3841 3500 
L 2234 1784 
L 3219 0 
L 2559 0 
L 1819 1388 
L 531 0 
L -166 0 
L 1556 1844 
L 641 3500 
L 1300 3500 
L 1972 2234 
L 3144 3500 
L 3841 3500 
z
" transform="scale(0.015625)"/>
      </defs>
      <use xlink:href="#DejaVuSans-Oblique-78" transform="translate(0 0.3125)"/>
     </g>
    </g>
   </g>
   <g id="matplotlib.axis_2">
    <g id="ytick_1">
     <g id="line2d_7">
      <path d="M 57.6 266.559626 
L 414.72 266.559626 
" clip-path="url(#p0bdea1a430)" style="fill: none; stroke: #b0b0b0; stroke-width: 0.8; stroke-linecap: square"/>
     </g>
     <g id="line2d_8">
      <defs>
       <path id="m1a863f09ea" d="M 0 0 
L -3.5 0 
" style="stroke: #000000; stroke-width: 0.8"/>
      </defs>
      <g>
       <use xlink:href="#m1a863f09ea" x="57.6" y="266.559626" style="stroke: #000000; stroke-width: 0.8"/>
      </g>
     </g>
     <g id="text_5">
      <!-- 0 -->
      <g transform="translate(44.2375 270.358845) scale(0.1 -0.1)">
       <use xlink:href="#DejaVuSans-30"/>
      </g>
     </g>
    </g>
    <g id="ytick_2">
     <g id="line2d_9">
      <path d="M 57.6 208.687536 
L 414.72 208.687536 
" clip-path="url(#p0bdea1a430)" style="fill: none; stroke: #b0b0b0; stroke-width: 0.8; stroke-linecap: square"/>
     </g>
     <g id="line2d_10">
      <g>
       <use xlink:href="#m1a863f09ea" x="57.6" y="208.687536" style="stroke: #000000; stroke-width: 0.8"/>
      </g>
     </g>
     <g id="text_6">
      <!-- 1 -->
      <g transform="translate(44.2375 212.486755) scale(0.1 -0.1)">
       <defs>
        <path id="DejaVuSans-31" d="M 794 531 
L 1825 531 
L 1825 4091 
L 703 3866 
L 703 4441 
L 1819 4666 
L 2450 4666 
L 2450 531 
L 3481 531 
L 3481 0 
L 794 0 
L 794 531 
z
" transform="scale(0.015625)"/>
       </defs>
       <use xlink:href="#DejaVuSans-31"/>
      </g>
     </g>
    </g>
    <g id="ytick_3">
     <g id="line2d_11">
      <path d="M 57.6 150.815446 
L 414.72 150.815446 
" clip-path="url(#p0bdea1a430)" style="fill: none; stroke: #b0b0b0; stroke-width: 0.8; stroke-linecap: square"/>
     </g>
     <g id="line2d_12">
      <g>
       <use xlink:href="#m1a863f09ea" x="57.6" y="150.815446" style="stroke: #000000; stroke-width: 0.8"/>
      </g>
     </g>
     <g id="text_7">
      <!-- 2 -->
      <g transform="translate(44.2375 154.614665) scale(0.1 -0.1)">
       <use xlink:href="#DejaVuSans-32"/>
      </g>
     </g>
    </g>
    <g id="ytick_4">
     <g id="line2d_13">
      <path d="M 57.6 92.943356 
L 414.72 92.943356 
" clip-path="url(#p0bdea1a430)" style="fill: none; stroke: #b0b0b0; stroke-width: 0.8; stroke-linecap: square"/>
     </g>
     <g id="line2d_14">
      <g>
       <use xlink:href="#m1a863f09ea" x="57.6" y="92.943356" style="stroke: #000000; stroke-width: 0.8"/>
      </g>
     </g>
     <g id="text_8">
      <!-- 3 -->
      <g transform="translate(44.2375 96.742575) scale(0.1 -0.1)">
       <defs>
        <path id="DejaVuSans-33" d="M 2597 2516 
Q 3050 2419 3304 2112 
Q 3559 1806 3559 1356 
Q 3559 666 3084 287 
Q 2609 -91 1734 -91 
Q 1441 -91 1130 -33 
Q 819 25 488 141 
L 488 750 
Q 750 597 1062 519 
Q 1375 441 1716 441 
Q 2309 441 2620 675 
Q 2931 909 2931 1356 
Q 2931 1769 2642 2001 
Q 2353 2234 1838 2234 
L 1294 2234 
L 1294 2753 
L 1863 2753 
Q 2328 2753 2575 2939 
Q 2822 3125 2822 3475 
Q 2822 3834 2567 4026 
Q 2313 4219 1838 4219 
Q 1578 4219 1281 4162 
Q 984 4106 628 3988 
L 628 4550 
Q 988 4650 1302 4700 
Q 1616 4750 1894 4750 
Q 2613 4750 3031 4423 
Q 3450 4097 3450 3541 
Q 3450 3153 3228 2886 
Q 3006 2619 2597 2516 
z
" transform="scale(0.015625)"/>
       </defs>
       <use xlink:href="#DejaVuSans-33"/>
      </g>
     </g>
    </g>
    <g id="text_9">
     <!-- $\frac{1}{2}sin\left(\frac{\pi}{2}x\right)$ -->
     <g transform="translate(36.2375 195.028) rotate(-90) scale(0.1 -0.1)">
      <defs>
       <path id="DejaVuSans-Oblique-73" d="M 3200 3397 
L 3091 2853 
Q 2863 2978 2609 3040 
Q 2356 3103 2088 3103 
Q 1634 3103 1373 2948 
Q 1113 2794 1113 2528 
Q 1113 2219 1719 2053 
Q 1766 2041 1788 2034 
L 1972 1978 
Q 2547 1819 2739 1644 
Q 2931 1469 2931 1166 
Q 2931 609 2489 259 
Q 2047 -91 1331 -91 
Q 1053 -91 747 -37 
Q 441 16 72 128 
L 184 722 
Q 500 559 806 475 
Q 1113 391 1394 391 
Q 1816 391 2080 572 
Q 2344 753 2344 1031 
Q 2344 1331 1650 1516 
L 1591 1531 
L 1394 1581 
Q 956 1697 753 1886 
Q 550 2075 550 2369 
Q 550 2928 970 3256 
Q 1391 3584 2113 3584 
Q 2397 3584 2667 3537 
Q 2938 3491 3200 3397 
z
" transform="scale(0.015625)"/>
       <path id="DejaVuSans-Oblique-69" d="M 1172 4863 
L 1747 4863 
L 1606 4134 
L 1031 4134 
L 1172 4863 
z
M 909 3500 
L 1484 3500 
L 800 0 
L 225 0 
L 909 3500 
z
" transform="scale(0.015625)"/>
       <path id="DejaVuSans-Oblique-6e" d="M 3566 2113 
L 3156 0 
L 2578 0 
L 2988 2091 
Q 3016 2238 3031 2350 
Q 3047 2463 3047 2528 
Q 3047 2791 2881 2937 
Q 2716 3084 2419 3084 
Q 1956 3084 1622 2776 
Q 1288 2469 1184 1941 
L 800 0 
L 225 0 
L 903 3500 
L 1478 3500 
L 1363 2950 
Q 1603 3253 1940 3418 
Q 2278 3584 2650 3584 
Q 3113 3584 3367 3334 
Q 3622 3084 3622 2631 
Q 3622 2519 3608 2391 
Q 3594 2263 3566 2113 
z
" transform="scale(0.015625)"/>
       <path id="STIXSizeOneSym-Regular-28" d="M 2445 -858 
L 2445 -1050 
Q 1728 -371 1309 630 
Q 890 1632 890 2886 
Q 890 4122 1309 5136 
Q 1728 6150 2445 6822 
L 2445 6630 
Q 1408 5363 1408 2886 
Q 1408 410 2445 -858 
z
" transform="scale(0.015625)"/>
       <path id="DejaVuSans-Oblique-3c0" d="M 584 3500 
L 3938 3500 
L 3825 2925 
L 3384 2925 
L 2966 775 
Q 2922 550 2981 450 
Q 3038 353 3209 353 
Q 3256 353 3325 363 
Q 3397 369 3419 372 
L 3338 -44 
Q 3222 -84 3103 -103 
Q 2981 -122 2866 -122 
Q 2491 -122 2388 81 
Q 2284 288 2391 838 
L 2797 2925 
L 1506 2925 
L 938 0 
L 350 0 
L 919 2925 
L 472 2925 
L 584 3500 
z
" transform="scale(0.015625)"/>
       <path id="STIXSizeOneSym-Regular-29" d="M 550 6630 
L 550 6822 
Q 1267 6144 1686 5142 
Q 2106 4141 2106 2886 
Q 2106 1651 1686 636 
Q 1267 -378 550 -1050 
L 550 -858 
Q 1587 410 1587 2886 
Q 1587 5363 550 6630 
z
" transform="scale(0.015625)"/>
      </defs>
      <use xlink:href="#DejaVuSans-31" transform="translate(0 43.965625) scale(0.7)"/>
      <use xlink:href="#DejaVuSans-32" transform="translate(0 -39.2375) scale(0.7)"/>
      <use xlink:href="#DejaVuSans-Oblique-73" transform="translate(57.036133 0.16875)"/>
      <use xlink:href="#DejaVuSans-Oblique-69" transform="translate(109.135742 0.16875)"/>
      <use xlink:href="#DejaVuSans-Oblique-6e" transform="translate(136.918945 0.16875)"/>
      <use xlink:href="#STIXSizeOneSym-Regular-28" transform="translate(200.297852 -22.83125) scale(0.998526)"/>
      <use xlink:href="#DejaVuSans-Oblique-3c0" transform="translate(248.039352 45.3) scale(0.7)"/>
      <use xlink:href="#DejaVuSans-32" transform="translate(247.039352 -39.2375) scale(0.7)"/>
      <use xlink:href="#DejaVuSans-Oblique-78" transform="translate(304.075485 0.16875)"/>
      <use xlink:href="#STIXSizeOneSym-Regular-29" transform="translate(363.255173 -22.83125) scale(0.998526)"/>
      <path d="M 0 18.965625 
L 0 25.215625 
L 44.536133 25.215625 
L 44.536133 18.965625 
L 0 18.965625 
z
"/>
      <path d="M 247.039352 18.965625 
L 247.039352 25.215625 
L 291.575485 25.215625 
L 291.575485 18.965625 
L 247.039352 18.965625 
z
"/>
     </g>
    </g>
   </g>
   <g id="line2d_15">
    <path d="M 73.832727 266.559626 
L 77.112066 265.117863 
L 80.391405 263.679682 
L 83.670744 262.248655 
L 86.950083 260.828337 
L 90.229421 259.422256 
L 93.50876 258.033906 
L 96.788099 256.666735 
L 100.067438 255.324139 
L 103.346777 254.009455 
L 106.626116 252.725946 
L 109.905455 251.476803 
L 113.184793 250.265128 
L 116.464132 249.093931 
L 119.743471 247.966122 
L 123.02281 246.884502 
L 126.302149 245.851758 
L 129.581488 244.870455 
L 132.860826 243.943032 
L 136.140165 243.071792 
L 139.419504 242.2589 
L 142.698843 241.506374 
L 145.978182 240.816085 
L 149.257521 240.189747 
L 152.53686 239.628915 
L 155.816198 239.134984 
L 159.095537 238.70918 
L 162.374876 238.35256 
L 165.654215 238.066012 
L 168.933554 237.850246 
L 172.212893 237.705799 
L 175.492231 237.633029 
L 178.77157 237.632118 
L 182.050909 237.703067 
L 185.330248 237.8457 
L 188.609587 238.059663 
L 191.888926 238.344425 
L 195.168264 238.699278 
L 198.447603 239.12334 
L 201.726942 239.615558 
L 205.006281 240.17471 
L 208.28562 240.799405 
L 211.564959 241.488094 
L 214.844298 242.239064 
L 218.123636 243.05045 
L 221.402975 243.920236 
L 224.682314 244.846262 
L 227.961653 245.826228 
L 231.240992 246.857699 
L 234.520331 247.938113 
L 237.799669 249.064785 
L 241.079008 250.234917 
L 244.358347 251.445602 
L 247.637686 252.693833 
L 250.917025 253.976509 
L 254.196364 255.290444 
L 257.475702 256.632372 
L 260.755041 257.998962 
L 264.03438 259.386817 
L 267.313719 260.792491 
L 270.593058 262.212492 
L 273.872397 263.643291 
L 277.151736 265.081335 
L 280.431074 266.523052 
L 283.710413 267.964859 
L 286.989752 269.403175 
L 290.269091 270.834428 
L 293.54843 272.255061 
L 296.827769 273.661546 
L 300.107107 275.050389 
L 303.386446 276.418139 
L 306.665785 277.761399 
L 309.945124 279.076833 
L 313.224463 280.361171 
L 316.503802 281.611224 
L 319.78314 282.823887 
L 323.062479 283.996147 
L 326.341818 285.125091 
L 329.621157 286.207917 
L 332.900496 287.241932 
L 336.179835 288.22457 
L 339.459174 289.153388 
L 342.738512 290.02608 
L 346.017851 290.840478 
L 349.29719 291.594558 
L 352.576529 292.286447 
L 355.855868 292.914427 
L 359.135207 293.476937 
L 362.414545 293.972581 
L 365.693884 294.400127 
L 368.973223 294.758512 
L 372.252562 295.046847 
L 375.531901 295.264415 
L 378.81124 295.410675 
L 382.090579 295.485266 
L 385.369917 295.488 
L 388.649256 295.418872 
L 391.928595 295.278053 
L 395.207934 295.065892 
L 398.487273 294.782918 
" clip-path="url(#p0bdea1a430)" style="fill: none; stroke: #1f77b4; stroke-width: 1.5; stroke-linecap: square"/>
   </g>
   <g id="line2d_16">
    <path d="M 73.832727 266.559626 
L 77.112066 265.118017 
L 80.391405 263.679973 
L 83.670744 262.249055 
L 86.950083 260.828804 
L 90.229421 259.422737 
L 93.50876 258.03434 
L 96.788099 256.667057 
L 100.067438 255.324282 
L 103.346777 254.009354 
L 106.626116 252.725544 
L 109.905455 251.476053 
L 113.184793 250.263997 
L 116.464132 249.092404 
L 119.743471 247.964204 
L 123.02281 246.882218 
L 126.302149 245.849158 
L 129.581488 244.867608 
L 132.860826 243.940025 
L 136.140165 243.068726 
L 139.419504 242.255879 
L 142.698843 241.503501 
L 145.978182 240.813442 
L 149.257521 240.187382 
L 152.53686 239.626821 
L 155.816198 239.133071 
L 159.095537 238.707248 
L 162.374876 238.350264 
L 165.654215 238.06282 
L 168.933554 237.845393 
L 172.212893 237.698234 
L 175.492231 237.621357 
L 178.77157 237.61453 
L 182.050909 237.677268 
L 185.330248 237.808825 
L 188.609587 238.008185 
L 191.888926 238.274054 
L 195.168264 238.604855 
L 198.447603 238.998712 
L 201.726942 239.45345 
L 205.006281 239.966584 
L 208.28562 240.535309 
L 211.564959 241.156493 
L 214.844298 241.826671 
L 218.123636 242.542032 
L 221.402975 243.298417 
L 224.682314 244.091306 
L 227.961653 244.915811 
L 231.240992 245.766669 
L 234.520331 246.638233 
L 237.799669 247.524464 
L 241.079008 248.418922 
L 244.358347 249.31476 
L 247.637686 250.204713 
L 250.917025 251.081093 
L 254.196364 251.935776 
L 257.475702 252.760201 
L 260.755041 253.545354 
L 264.03438 254.281766 
L 267.313719 254.959502 
L 270.593058 255.568152 
L 273.872397 256.096825 
L 277.151736 256.534141 
L 280.431074 256.86822 
L 283.710413 257.086676 
L 286.989752 257.176608 
L 290.269091 257.124594 
L 293.54843 256.91668 
L 296.827769 256.538372 
L 300.107107 255.97463 
L 303.386446 255.209858 
L 306.665785 254.227896 
L 309.945124 253.012014 
L 313.224463 251.5449 
L 316.503802 249.808655 
L 319.78314 247.784783 
L 323.062479 245.454184 
L 326.341818 242.797146 
L 329.621157 239.793335 
L 332.900496 236.421789 
L 336.179835 232.660909 
L 339.459174 228.488449 
L 342.738512 223.881512 
L 346.017851 218.816538 
L 349.29719 213.269296 
L 352.576529 207.214881 
L 355.855868 200.627697 
L 359.135207 193.481457 
L 362.414545 185.749171 
L 365.693884 177.403137 
L 368.973223 168.414936 
L 372.252562 158.75542 
L 375.531901 148.394708 
L 378.81124 137.302175 
L 382.090579 125.446444 
L 385.369917 112.795379 
L 388.649256 99.316075 
L 391.928595 84.974852 
L 395.207934 69.737246 
L 398.487273 53.568 
" clip-path="url(#p0bdea1a430)" style="fill: none; stroke-dasharray: 5.55,2.4; stroke-dashoffset: 0; stroke: #ff0000; stroke-width: 1.5"/>
   </g>
   <g id="patch_3">
    <path d="M 57.6 307.584 
L 57.6 41.472 
" style="fill: none; stroke: #000000; stroke-width: 0.8; stroke-linejoin: miter; stroke-linecap: square"/>
   </g>
   <g id="patch_4">
    <path d="M 414.72 307.584 
L 414.72 41.472 
" style="fill: none; stroke: #000000; stroke-width: 0.8; stroke-linejoin: miter; stroke-linecap: square"/>
   </g>
   <g id="patch_5">
    <path d="M 57.6 307.584 
L 414.72 307.584 
" style="fill: none; stroke: #000000; stroke-width: 0.8; stroke-linejoin: miter; stroke-linecap: square"/>
   </g>
   <g id="patch_6">
    <path d="M 57.6 41.472 
L 414.72 41.472 
" style="fill: none; stroke: #000000; stroke-width: 0.8; stroke-linejoin: miter; stroke-linecap: square"/>
   </g>
  </g>
 </g>
 <defs>
  <clipPath id="p0bdea1a430">
   <rect x="57.6" y="41.472" width="357.12" height="266.112"/>
  </clipPath>
 </defs>
</svg>
